<?xml version="1.0" encoding="UTF-8"?>
<svg xmlns="http://www.w3.org/2000/svg" width="811" height="479">
   <defs>
      <style type="text/css">
    @namespace "http://www.w3.org/2000/svg";
    .line                 {fill: none; stroke: #332900; stroke-width: 1;}
    .bold-line            {stroke: #141000; shape-rendering: crispEdges; stroke-width: 2;}
    .thin-line            {stroke: #1F1800; shape-rendering: crispEdges}
    .filled               {fill: #332900; stroke: none;}
    text.terminal         {font-family: Verdana, Sans-serif;
                            font-size: 12px;
                            fill: #141000;
                            font-weight: bold;
                          }
    text.nonterminal      {font-family: Verdana, Sans-serif;
                            font-size: 12px;
                            fill: #1A1400;
                            font-weight: normal;
                          }
    text.regexp           {font-family: Verdana, Sans-serif;
                            font-size: 12px;
                            fill: #1F1800;
                            font-weight: normal;
                          }
    rect, circle, polygon {fill: #332900; stroke: #332900;}
    rect.terminal         {fill: #FFDB4D; stroke: #332900; stroke-width: 1;}
    rect.nonterminal      {fill: #FFEC9E; stroke: #332900; stroke-width: 1;}
    rect.text             {fill: none; stroke: none;}
    polygon.regexp        {fill: #FFF4C7; stroke: #332900; stroke-width: 1;}
  </style>
   </defs>
   <polygon points="9 51 1 47 1 55"/>
   <polygon points="17 51 9 47 9 55"/>
   <a xmlns:xlink="http://www.w3.org/1999/xlink"
      xlink:href="#slashdash"
      xlink:title="slashdash">
      <rect x="51" y="69" width="84" height="32"/>
      <rect x="49" y="67" width="84" height="32" class="nonterminal"/>
      <text class="nonterminal" x="59" y="87">slashdash</text>
   </a>
   <a xmlns:xlink="http://www.w3.org/1999/xlink"
      xlink:href="#type"
      xlink:title="type">
      <rect x="195" y="69" width="48" height="32"/>
      <rect x="193" y="67" width="48" height="32" class="nonterminal"/>
      <text class="nonterminal" x="203" y="87">type</text>
   </a>
   <a xmlns:xlink="http://www.w3.org/1999/xlink"
      xlink:href="#node-space"
      xlink:title="node-space">
      <rect x="303" y="3" width="94" height="32"/>
      <rect x="301" y="1" width="94" height="32" class="nonterminal"/>
      <text class="nonterminal" x="311" y="21">node-space</text>
   </a>
   <a xmlns:xlink="http://www.w3.org/1999/xlink"
      xlink:href="#string"
      xlink:title="string">
      <rect x="437" y="37" width="56" height="32"/>
      <rect x="435" y="35" width="56" height="32" class="nonterminal"/>
      <text class="nonterminal" x="445" y="55">string</text>
   </a>
   <a xmlns:xlink="http://www.w3.org/1999/xlink"
      xlink:href="#node-space"
      xlink:title="node-space">
      <rect x="212" y="167" width="94" height="32"/>
      <rect x="210" y="165" width="94" height="32" class="nonterminal"/>
      <text class="nonterminal" x="220" y="185">node-space</text>
   </a>
   <a xmlns:xlink="http://www.w3.org/1999/xlink"
      xlink:href="#slashdash"
      xlink:title="slashdash">
      <rect x="366" y="199" width="84" height="32"/>
      <rect x="364" y="197" width="84" height="32" class="nonterminal"/>
      <text class="nonterminal" x="374" y="217">slashdash</text>
   </a>
   <a xmlns:xlink="http://www.w3.org/1999/xlink"
      xlink:href="#node-prop-or-arg"
      xlink:title="node-prop-or-arg">
      <rect x="490" y="167" width="132" height="32"/>
      <rect x="488" y="165" width="132" height="32" class="nonterminal"/>
      <text class="nonterminal" x="498" y="185">node-prop-or-arg</text>
   </a>
   <a xmlns:xlink="http://www.w3.org/1999/xlink"
      xlink:href="#node-space"
      xlink:title="node-space">
      <rect x="85" y="313" width="94" height="32"/>
      <rect x="83" y="311" width="94" height="32" class="nonterminal"/>
      <text class="nonterminal" x="93" y="331">node-space</text>
   </a>
   <a xmlns:xlink="http://www.w3.org/1999/xlink"
      xlink:href="#slashdash"
      xlink:title="slashdash">
      <rect x="219" y="313" width="84" height="32"/>
      <rect x="217" y="311" width="84" height="32" class="nonterminal"/>
      <text class="nonterminal" x="227" y="331">slashdash</text>
   </a>
   <a xmlns:xlink="http://www.w3.org/1999/xlink"
      xlink:href="#node-children"
      xlink:title="node-children">
      <rect x="323" y="313" width="106" height="32"/>
      <rect x="321" y="311" width="106" height="32" class="nonterminal"/>
      <text class="nonterminal" x="331" y="331">node-children</text>
   </a>
   <a xmlns:xlink="http://www.w3.org/1999/xlink"
      xlink:href="#node-space"
      xlink:title="node-space">
      <rect x="529" y="313" width="94" height="32"/>
      <rect x="527" y="311" width="94" height="32" class="nonterminal"/>
      <text class="nonterminal" x="537" y="331">node-space</text>
   </a>
   <a xmlns:xlink="http://www.w3.org/1999/xlink"
      xlink:href="#node-children"
      xlink:title="node-children">
      <rect x="663" y="313" width="106" height="32"/>
      <rect x="661" y="311" width="106" height="32" class="nonterminal"/>
      <text class="nonterminal" x="671" y="331">node-children</text>
   </a>
   <a xmlns:xlink="http://www.w3.org/1999/xlink"
      xlink:href="#node-space"
      xlink:title="node-space">
      <rect x="245" y="429" width="94" height="32"/>
      <rect x="243" y="427" width="94" height="32" class="nonterminal"/>
      <text class="nonterminal" x="253" y="447">node-space</text>
   </a>
   <a xmlns:xlink="http://www.w3.org/1999/xlink"
      xlink:href="#slashdash"
      xlink:title="slashdash">
      <rect x="379" y="429" width="84" height="32"/>
      <rect x="377" y="427" width="84" height="32" class="nonterminal"/>
      <text class="nonterminal" x="387" y="447">slashdash</text>
   </a>
   <a xmlns:xlink="http://www.w3.org/1999/xlink"
      xlink:href="#node-children"
      xlink:title="node-children">
      <rect x="483" y="429" width="106" height="32"/>
      <rect x="481" y="427" width="106" height="32" class="nonterminal"/>
      <text class="nonterminal" x="491" y="447">node-children</text>
   </a>
   <a xmlns:xlink="http://www.w3.org/1999/xlink"
      xlink:href="#node-space"
      xlink:title="node-space">
      <rect x="669" y="395" width="94" height="32"/>
      <rect x="667" y="393" width="94" height="32" class="nonterminal"/>
      <text class="nonterminal" x="677" y="413">node-space</text>
   </a>
   <path class="line"
         d="m17 51 h2 m20 0 h10 m0 0 h94 m-124 0 h20 m104 0 h20 m-144 0 q10 0 10 10 m124 0 q0 -10 10 -10 m-134 10 v12 m124 0 v-12 m-124 12 q0 10 10 10 m104 0 q10 0 10 -10 m-114 10 h10 m84 0 h10 m40 -32 h10 m0 0 h58 m-88 0 h20 m68 0 h20 m-108 0 q10 0 10 10 m88 0 q0 -10 10 -10 m-98 10 v12 m88 0 v-12 m-88 12 q0 10 10 10 m68 0 q10 0 10 -10 m-78 10 h10 m48 0 h10 m40 -32 h10 m0 0 h104 m-134 0 l20 0 m-1 0 q-9 0 -9 -10 l0 -14 q0 -10 10 -10 m114 34 l20 0 m-20 0 q10 0 10 -10 l0 -14 q0 -10 -10 -10 m-114 0 h10 m94 0 h10 m20 34 h10 m56 0 h10 m2 0 l2 0 m2 0 l2 0 m2 0 l2 0 m-385 130 l2 0 m2 0 l2 0 m2 0 l2 0 m62 0 h10 m94 0 h10 m-134 0 l20 0 m-1 0 q-9 0 -9 -10 l0 -12 q0 -10 10 -10 m114 32 l20 0 m-20 0 q10 0 10 -10 l0 -12 q0 -10 -10 -10 m-114 0 h10 m0 0 h104 m40 32 h10 m0 0 h94 m-124 0 h20 m104 0 h20 m-144 0 q10 0 10 10 m124 0 q0 -10 10 -10 m-134 10 v12 m124 0 v-12 m-124 12 q0 10 10 10 m104 0 q10 0 10 -10 m-114 10 h10 m84 0 h10 m20 -32 h10 m132 0 h10 m-470 0 l20 0 m-1 0 q-9 0 -9 -10 l0 -28 q0 -10 10 -10 m450 48 l20 0 m-20 0 q10 0 10 -10 l0 -28 q0 -10 -10 -10 m-450 0 h10 m0 0 h440 m-490 48 h20 m490 0 h20 m-530 0 q10 0 10 10 m510 0 q0 -10 10 -10 m-520 10 v46 m510 0 v-46 m-510 46 q0 10 10 10 m490 0 q10 0 10 -10 m-500 10 h10 m0 0 h480 m22 -66 l2 0 m2 0 l2 0 m2 0 l2 0 m-681 146 l2 0 m2 0 l2 0 m2 0 l2 0 m62 0 h10 m94 0 h10 m-134 0 l20 0 m-1 0 q-9 0 -9 -10 l0 -12 q0 -10 10 -10 m114 32 l20 0 m-20 0 q10 0 10 -10 l0 -12 q0 -10 -10 -10 m-114 0 h10 m0 0 h104 m20 32 h10 m84 0 h10 m0 0 h10 m106 0 h10 m-404 0 l20 0 m-1 0 q-9 0 -9 -10 l0 -28 q0 -10 10 -10 m384 48 l20 0 m-20 0 q10 0 10 -10 l0 -28 q0 -10 -10 -10 m-384 0 h10 m0 0 h374 m-424 48 h20 m424 0 h20 m-464 0 q10 0 10 10 m444 0 q0 -10 10 -10 m-454 10 v14 m444 0 v-14 m-444 14 q0 10 10 10 m424 0 q10 0 10 -10 m-434 10 h10 m0 0 h414 m60 -34 h10 m94 0 h10 m-134 0 l20 0 m-1 0 q-9 0 -9 -10 l0 -12 q0 -10 10 -10 m114 32 l20 0 m-20 0 q10 0 10 -10 l0 -12 q0 -10 -10 -10 m-114 0 h10 m0 0 h104 m20 32 h10 m106 0 h10 m-300 0 h20 m280 0 h20 m-320 0 q10 0 10 10 m300 0 q0 -10 10 -10 m-310 10 v14 m300 0 v-14 m-300 14 q0 10 10 10 m280 0 q10 0 10 -10 m-290 10 h10 m0 0 h270 m22 -34 l2 0 m2 0 l2 0 m2 0 l2 0 m-648 116 l2 0 m2 0 l2 0 m2 0 l2 0 m62 0 h10 m94 0 h10 m-134 0 l20 0 m-1 0 q-9 0 -9 -10 l0 -12 q0 -10 10 -10 m114 32 l20 0 m-20 0 q10 0 10 -10 l0 -12 q0 -10 -10 -10 m-114 0 h10 m0 0 h104 m20 32 h10 m84 0 h10 m0 0 h10 m106 0 h10 m-404 0 l20 0 m-1 0 q-9 0 -9 -10 l0 -28 q0 -10 10 -10 m384 48 l20 0 m-20 0 q10 0 10 -10 l0 -28 q0 -10 -10 -10 m-384 0 h10 m0 0 h374 m-424 48 h20 m424 0 h20 m-464 0 q10 0 10 10 m444 0 q0 -10 10 -10 m-454 10 v14 m444 0 v-14 m-444 14 q0 10 10 10 m424 0 q10 0 10 -10 m-434 10 h10 m0 0 h414 m40 -34 h10 m0 0 h104 m-134 0 l20 0 m-1 0 q-9 0 -9 -10 l0 -14 q0 -10 10 -10 m114 34 l20 0 m-20 0 q10 0 10 -10 l0 -14 q0 -10 -10 -10 m-114 0 h10 m94 0 h10 m23 34 h-3"/>
   <polygon points="801 443 809 439 809 447"/>
   <polygon points="801 443 793 439 793 447"/>
</svg>
