<?xml version="1.0" encoding="UTF-8"?>
<svg xmlns="http://www.w3.org/2000/svg" width="961" height="659">
   <defs>
      <style type="text/css">
    @namespace "http://www.w3.org/2000/svg";
    .line                 {fill: none; stroke: #332900; stroke-width: 1;}
    .bold-line            {stroke: #141000; shape-rendering: crispEdges; stroke-width: 2;}
    .thin-line            {stroke: #1F1800; shape-rendering: crispEdges}
    .filled               {fill: #332900; stroke: none;}
    text.terminal         {font-family: Verdana, Sans-serif;
                            font-size: 12px;
                            fill: #141000;
                            font-weight: bold;
                          }
    text.nonterminal      {font-family: Verdana, Sans-serif;
                            font-size: 12px;
                            fill: #1A1400;
                            font-weight: normal;
                          }
    text.regexp           {font-family: Verdana, Sans-serif;
                            font-size: 12px;
                            fill: #1F1800;
                            font-weight: normal;
                          }
    rect, circle, polygon {fill: #332900; stroke: #332900;}
    rect.terminal         {fill: #FFDB4D; stroke: #332900; stroke-width: 1;}
    rect.nonterminal      {fill: #FFEC9E; stroke: #332900; stroke-width: 1;}
    rect.text             {fill: none; stroke: none;}
    polygon.regexp        {fill: #FFF4C7; stroke: #332900; stroke-width: 1;}
  </style>
   </defs>
   <polygon points="9 17 1 13 1 21"/>
   <polygon points="17 17 9 13 9 21"/>
   <rect x="51" y="3" width="26" height="32" rx="10"/>
   <rect x="49"
         y="1"
         width="26"
         height="32"
         class="terminal"
         rx="10"/>
   <text class="terminal" x="59" y="21">"</text>
   <rect x="51" y="47" width="28" height="32" rx="10"/>
   <rect x="49"
         y="45"
         width="28"
         height="32"
         class="terminal"
         rx="10"/>
   <text class="terminal" x="59" y="65">\</text>
   <rect x="51" y="91" width="28" height="32" rx="10"/>
   <rect x="49"
         y="89"
         width="28"
         height="32"
         class="terminal"
         rx="10"/>
   <text class="terminal" x="59" y="109">b</text>
   <rect x="51" y="135" width="24" height="32" rx="10"/>
   <rect x="49"
         y="133"
         width="24"
         height="32"
         class="terminal"
         rx="10"/>
   <text class="terminal" x="59" y="153">f</text>
   <rect x="51" y="179" width="28" height="32" rx="10"/>
   <rect x="49"
         y="177"
         width="28"
         height="32"
         class="terminal"
         rx="10"/>
   <text class="terminal" x="59" y="197">n</text>
   <rect x="51" y="223" width="26" height="32" rx="10"/>
   <rect x="49"
         y="221"
         width="26"
         height="32"
         class="terminal"
         rx="10"/>
   <text class="terminal" x="59" y="241">r</text>
   <rect x="51" y="267" width="24" height="32" rx="10"/>
   <rect x="49"
         y="265"
         width="24"
         height="32"
         class="terminal"
         rx="10"/>
   <text class="terminal" x="59" y="285">t</text>
   <rect x="51" y="311" width="26" height="32" rx="10"/>
   <rect x="49"
         y="309"
         width="26"
         height="32"
         class="terminal"
         rx="10"/>
   <text class="terminal" x="59" y="329">s</text>
   <rect x="51" y="355" width="38" height="32" rx="10"/>
   <rect x="49"
         y="353"
         width="38"
         height="32"
         class="terminal"
         rx="10"/>
   <text class="terminal" x="59" y="373">u{</text>
   <a xmlns:xlink="http://www.w3.org/1999/xlink"
      xlink:href="#hex-digit"
      xlink:title="hex-digit">
      <rect x="109" y="355" width="76" height="32"/>
      <rect x="107" y="353" width="76" height="32" class="nonterminal"/>
      <text class="nonterminal" x="117" y="373">hex-digit</text>
   </a>
   <a xmlns:xlink="http://www.w3.org/1999/xlink"
      xlink:href="#hex-digit"
      xlink:title="hex-digit">
      <rect x="225" y="387" width="76" height="32"/>
      <rect x="223" y="385" width="76" height="32" class="nonterminal"/>
      <text class="nonterminal" x="233" y="405">hex-digit</text>
   </a>
   <a xmlns:xlink="http://www.w3.org/1999/xlink"
      xlink:href="#hex-digit"
      xlink:title="hex-digit">
      <rect x="341" y="419" width="76" height="32"/>
      <rect x="339" y="417" width="76" height="32" class="nonterminal"/>
      <text class="nonterminal" x="349" y="437">hex-digit</text>
   </a>
   <a xmlns:xlink="http://www.w3.org/1999/xlink"
      xlink:href="#hex-digit"
      xlink:title="hex-digit">
      <rect x="457" y="451" width="76" height="32"/>
      <rect x="455" y="449" width="76" height="32" class="nonterminal"/>
      <text class="nonterminal" x="465" y="469">hex-digit</text>
   </a>
   <a xmlns:xlink="http://www.w3.org/1999/xlink"
      xlink:href="#hex-digit"
      xlink:title="hex-digit">
      <rect x="573" y="483" width="76" height="32"/>
      <rect x="571" y="481" width="76" height="32" class="nonterminal"/>
      <text class="nonterminal" x="581" y="501">hex-digit</text>
   </a>
   <a xmlns:xlink="http://www.w3.org/1999/xlink"
      xlink:href="#hex-digit"
      xlink:title="hex-digit">
      <rect x="689" y="515" width="76" height="32"/>
      <rect x="687" y="513" width="76" height="32" class="nonterminal"/>
      <text class="nonterminal" x="697" y="533">hex-digit</text>
   </a>
   <rect x="885" y="355" width="28" height="32" rx="10"/>
   <rect x="883"
         y="353"
         width="28"
         height="32"
         class="terminal"
         rx="10"/>
   <text class="terminal" x="893" y="373">}</text>
   <a xmlns:xlink="http://www.w3.org/1999/xlink"
      xlink:href="#unicode-space"
      xlink:title="unicode-space">
      <rect x="91" y="581" width="112" height="32"/>
      <rect x="89" y="579" width="112" height="32" class="nonterminal"/>
      <text class="nonterminal" x="99" y="599">unicode-space</text>
   </a>
   <a xmlns:xlink="http://www.w3.org/1999/xlink"
      xlink:href="#newline"
      xlink:title="newline">
      <rect x="91" y="625" width="68" height="32"/>
      <rect x="89" y="623" width="68" height="32" class="nonterminal"/>
      <text class="nonterminal" x="99" y="643">newline</text>
   </a>
   <path class="line"
         d="m17 17 h2 m20 0 h10 m26 0 h10 m0 0 h836 m-902 0 h20 m882 0 h20 m-922 0 q10 0 10 10 m902 0 q0 -10 10 -10 m-912 10 v24 m902 0 v-24 m-902 24 q0 10 10 10 m882 0 q10 0 10 -10 m-892 10 h10 m28 0 h10 m0 0 h834 m-892 -10 v20 m902 0 v-20 m-902 20 v24 m902 0 v-24 m-902 24 q0 10 10 10 m882 0 q10 0 10 -10 m-892 10 h10 m28 0 h10 m0 0 h834 m-892 -10 v20 m902 0 v-20 m-902 20 v24 m902 0 v-24 m-902 24 q0 10 10 10 m882 0 q10 0 10 -10 m-892 10 h10 m24 0 h10 m0 0 h838 m-892 -10 v20 m902 0 v-20 m-902 20 v24 m902 0 v-24 m-902 24 q0 10 10 10 m882 0 q10 0 10 -10 m-892 10 h10 m28 0 h10 m0 0 h834 m-892 -10 v20 m902 0 v-20 m-902 20 v24 m902 0 v-24 m-902 24 q0 10 10 10 m882 0 q10 0 10 -10 m-892 10 h10 m26 0 h10 m0 0 h836 m-892 -10 v20 m902 0 v-20 m-902 20 v24 m902 0 v-24 m-902 24 q0 10 10 10 m882 0 q10 0 10 -10 m-892 10 h10 m24 0 h10 m0 0 h838 m-892 -10 v20 m902 0 v-20 m-902 20 v24 m902 0 v-24 m-902 24 q0 10 10 10 m882 0 q10 0 10 -10 m-892 10 h10 m26 0 h10 m0 0 h836 m-892 -10 v20 m902 0 v-20 m-902 20 v24 m902 0 v-24 m-902 24 q0 10 10 10 m882 0 q10 0 10 -10 m-892 10 h10 m38 0 h10 m0 0 h10 m76 0 h10 m20 0 h10 m0 0 h630 m-660 0 h20 m640 0 h20 m-680 0 q10 0 10 10 m660 0 q0 -10 10 -10 m-670 10 v12 m660 0 v-12 m-660 12 q0 10 10 10 m640 0 q10 0 10 -10 m-650 10 h10 m76 0 h10 m20 0 h10 m0 0 h494 m-524 0 h20 m504 0 h20 m-544 0 q10 0 10 10 m524 0 q0 -10 10 -10 m-534 10 v12 m524 0 v-12 m-524 12 q0 10 10 10 m504 0 q10 0 10 -10 m-514 10 h10 m76 0 h10 m20 0 h10 m0 0 h358 m-388 0 h20 m368 0 h20 m-408 0 q10 0 10 10 m388 0 q0 -10 10 -10 m-398 10 v12 m388 0 v-12 m-388 12 q0 10 10 10 m368 0 q10 0 10 -10 m-378 10 h10 m76 0 h10 m20 0 h10 m0 0 h222 m-252 0 h20 m232 0 h20 m-272 0 q10 0 10 10 m252 0 q0 -10 10 -10 m-262 10 v12 m252 0 v-12 m-252 12 q0 10 10 10 m232 0 q10 0 10 -10 m-242 10 h10 m76 0 h10 m20 0 h10 m0 0 h86 m-116 0 h20 m96 0 h20 m-136 0 q10 0 10 10 m116 0 q0 -10 10 -10 m-126 10 v12 m116 0 v-12 m-116 12 q0 10 10 10 m96 0 q10 0 10 -10 m-106 10 h10 m76 0 h10 m100 -160 h10 m28 0 h10 m-892 -10 v20 m902 0 v-20 m-902 20 v206 m902 0 v-206 m-902 206 q0 10 10 10 m882 0 q10 0 10 -10 m-852 10 h10 m112 0 h10 m-152 0 h20 m132 0 h20 m-172 0 q10 0 10 10 m152 0 q0 -10 10 -10 m-162 10 v24 m152 0 v-24 m-152 24 q0 10 10 10 m132 0 q10 0 10 -10 m-142 10 h10 m68 0 h10 m0 0 h44 m-172 -44 l20 0 m-1 0 q-9 0 -9 -10 l0 -12 q0 -10 10 -10 m172 32 l20 0 m-20 0 q10 0 10 -10 l0 -12 q0 -10 -10 -10 m-172 0 h10 m0 0 h162 m20 32 h670 m23 -578 h-3"/>
   <polygon points="951 17 959 13 959 21"/>
   <polygon points="951 17 943 13 943 21"/>
</svg>
