<?xml version="1.0" encoding="UTF-8"?>
<svg xmlns="http://www.w3.org/2000/svg" width="433" height="147">
   <defs>
      <style type="text/css">
    @namespace "http://www.w3.org/2000/svg";
    .line                 {fill: none; stroke: #332900; stroke-width: 1;}
    .bold-line            {stroke: #141000; shape-rendering: crispEdges; stroke-width: 2;}
    .thin-line            {stroke: #1F1800; shape-rendering: crispEdges}
    .filled               {fill: #332900; stroke: none;}
    text.terminal         {font-family: Verdana, Sans-serif;
                            font-size: 12px;
                            fill: #141000;
                            font-weight: bold;
                          }
    text.nonterminal      {font-family: Verdana, Sans-serif;
                            font-size: 12px;
                            fill: #1A1400;
                            font-weight: normal;
                          }
    text.regexp           {font-family: Verdana, Sans-serif;
                            font-size: 12px;
                            fill: #1F1800;
                            font-weight: normal;
                          }
    rect, circle, polygon {fill: #332900; stroke: #332900;}
    rect.terminal         {fill: #FFDB4D; stroke: #332900; stroke-width: 1;}
    rect.nonterminal      {fill: #FFEC9E; stroke: #332900; stroke-width: 1;}
    rect.text             {fill: none; stroke: none;}
    polygon.regexp        {fill: #FFF4C7; stroke: #332900; stroke-width: 1;}
  </style>
   </defs>
   <polygon points="9 95 1 91 1 99"/>
   <polygon points="17 95 9 91 9 99"/>
   <a xmlns:xlink="http://www.w3.org/1999/xlink"
      xlink:href="#sign"
      xlink:title="sign">
      <rect x="51" y="113" width="46" height="32"/>
      <rect x="49" y="111" width="46" height="32" class="nonterminal"/>
      <text class="nonterminal" x="59" y="131">sign</text>
   </a>
   <rect x="137" y="81" width="36" height="32" rx="10"/>
   <rect x="135"
         y="79"
         width="36"
         height="32"
         class="terminal"
         rx="10"/>
   <text class="terminal" x="145" y="99">0x</text>
   <a xmlns:xlink="http://www.w3.org/1999/xlink"
      xlink:href="#hex-digit"
      xlink:title="hex-digit">
      <rect x="193" y="81" width="76" height="32"/>
      <rect x="191" y="79" width="76" height="32" class="nonterminal"/>
      <text class="nonterminal" x="201" y="99">hex-digit</text>
   </a>
   <a xmlns:xlink="http://www.w3.org/1999/xlink"
      xlink:href="#hex-digit"
      xlink:title="hex-digit">
      <rect x="309" y="47" width="76" height="32"/>
      <rect x="307" y="45" width="76" height="32" class="nonterminal"/>
      <text class="nonterminal" x="317" y="65">hex-digit</text>
   </a>
   <rect x="309" y="3" width="28" height="32" rx="10"/>
   <rect x="307"
         y="1"
         width="28"
         height="32"
         class="terminal"
         rx="10"/>
   <text class="terminal" x="317" y="21">_</text>
   <path class="line"
         d="m17 95 h2 m20 0 h10 m0 0 h56 m-86 0 h20 m66 0 h20 m-106 0 q10 0 10 10 m86 0 q0 -10 10 -10 m-96 10 v12 m86 0 v-12 m-86 12 q0 10 10 10 m66 0 q10 0 10 -10 m-76 10 h10 m46 0 h10 m20 -32 h10 m36 0 h10 m0 0 h10 m76 0 h10 m20 0 h10 m0 0 h86 m-116 0 l20 0 m-1 0 q-9 0 -9 -10 l0 -14 q0 -10 10 -10 m96 34 l20 0 m-20 0 q10 0 10 -10 l0 -14 q0 -10 -10 -10 m-96 0 h10 m76 0 h10 m-106 10 l0 -44 q0 -10 10 -10 m106 54 l0 -44 q0 -10 -10 -10 m-96 0 h10 m28 0 h10 m0 0 h48 m23 78 h-3"/>
   <polygon points="423 95 431 91 431 99"/>
   <polygon points="423 95 415 91 415 99"/>
</svg>
