<?xml version="1.0" encoding="UTF-8"?>
<svg xmlns="http://www.w3.org/2000/svg" width="439" height="223">
   <defs>
      <style type="text/css">
    @namespace "http://www.w3.org/2000/svg";
    .line                 {fill: none; stroke: #332900; stroke-width: 1;}
    .bold-line            {stroke: #141000; shape-rendering: crispEdges; stroke-width: 2;}
    .thin-line            {stroke: #1F1800; shape-rendering: crispEdges}
    .filled               {fill: #332900; stroke: none;}
    text.terminal         {font-family: Verdana, Sans-serif;
                            font-size: 12px;
                            fill: #141000;
                            font-weight: bold;
                          }
    text.nonterminal      {font-family: Verdana, Sans-serif;
                            font-size: 12px;
                            fill: #1A1400;
                            font-weight: normal;
                          }
    text.regexp           {font-family: Verdana, Sans-serif;
                            font-size: 12px;
                            fill: #1F1800;
                            font-weight: normal;
                          }
    rect, circle, polygon {fill: #332900; stroke: #332900;}
    rect.terminal         {fill: #FFDB4D; stroke: #332900; stroke-width: 1;}
    rect.nonterminal      {fill: #FFEC9E; stroke: #332900; stroke-width: 1;}
    rect.text             {fill: none; stroke: none;}
    polygon.regexp        {fill: #FFF4C7; stroke: #332900; stroke-width: 1;}
  </style>
   </defs>
   <polygon points="9 33 1 29 1 37"/>
   <polygon points="17 33 9 29 9 37"/>
   <rect x="31" y="19" width="36" height="32" rx="10"/>
   <rect x="29"
         y="17"
         width="36"
         height="32"
         class="terminal"
         rx="10"/>
   <text class="terminal" x="39" y="37">/*</text>
   <a xmlns:xlink="http://www.w3.org/1999/xlink"
      xlink:href="#multi-line-comment"
      xlink:title="multi-line-comment">
      <rect x="147" y="19" width="142" height="32"/>
      <rect x="145" y="17" width="142" height="32" class="nonterminal"/>
      <text class="nonterminal" x="155" y="37">multi-line-comment</text>
   </a>
   <rect x="147" y="63" width="28" height="32" rx="10"/>
   <rect x="145"
         y="61"
         width="28"
         height="32"
         class="terminal"
         rx="10"/>
   <text class="terminal" x="155" y="81">*</text>
   <rect x="147" y="107" width="28" height="32" rx="10"/>
   <rect x="145"
         y="105"
         width="28"
         height="32"
         class="terminal"
         rx="10"/>
   <text class="terminal" x="155" y="125">/</text>
   <a xmlns:xlink="http://www.w3.org/1999/xlink"
      xlink:href="#not-block-end"
      xlink:title="not-block-end">
      <rect x="167" y="173" width="108" height="32"/>
      <rect x="165" y="171" width="108" height="32" class="nonterminal"/>
      <text class="nonterminal" x="175" y="191">not-block-end</text>
   </a>
   <rect x="375" y="19" width="36" height="32" rx="10"/>
   <rect x="373"
         y="17"
         width="36"
         height="32"
         class="terminal"
         rx="10"/>
   <text class="terminal" x="383" y="37">*/</text>
   <path class="line"
         d="m17 33 h2 m0 0 h10 m36 0 h10 m60 0 h10 m142 0 h10 m0 0 h6 m-188 0 h20 m168 0 h20 m-208 0 q10 0 10 10 m188 0 q0 -10 10 -10 m-198 10 v24 m188 0 v-24 m-188 24 q0 10 10 10 m168 0 q10 0 10 -10 m-178 10 h10 m28 0 h10 m0 0 h120 m-178 -10 v20 m188 0 v-20 m-188 20 v24 m188 0 v-24 m-188 24 q0 10 10 10 m168 0 q10 0 10 -10 m-178 10 h10 m28 0 h10 m0 0 h120 m-178 -10 v20 m188 0 v-20 m-188 20 v46 m188 0 v-46 m-188 46 q0 10 10 10 m168 0 q10 0 10 -10 m-158 10 h10 m108 0 h10 m-148 0 l20 0 m-1 0 q-9 0 -9 -10 l0 -12 q0 -10 10 -10 m128 32 l20 0 m-20 0 q10 0 10 -10 l0 -12 q0 -10 -10 -10 m-128 0 h10 m0 0 h118 m-188 -122 l20 0 m-1 0 q-9 0 -9 -10 l0 -12 q0 -10 10 -10 m208 32 l20 0 m-20 0 q10 0 10 -10 l0 -12 q0 -10 -10 -10 m-208 0 h10 m0 0 h198 m-248 32 h20 m248 0 h20 m-288 0 q10 0 10 10 m268 0 q0 -10 10 -10 m-278 10 v168 m268 0 v-168 m-268 168 q0 10 10 10 m248 0 q10 0 10 -10 m-258 10 h10 m0 0 h238 m20 -188 h10 m36 0 h10 m3 0 h-3"/>
   <polygon points="429 33 437 29 437 37"/>
   <polygon points="429 33 421 29 421 37"/>
</svg>
