<?xml version="1.0" encoding="UTF-8"?>
<svg xmlns="http://www.w3.org/2000/svg" width="353" height="145">
   <defs>
      <style type="text/css">
    @namespace "http://www.w3.org/2000/svg";
    .line                 {fill: none; stroke: #332900; stroke-width: 1;}
    .bold-line            {stroke: #141000; shape-rendering: crispEdges; stroke-width: 2;}
    .thin-line            {stroke: #1F1800; shape-rendering: crispEdges}
    .filled               {fill: #332900; stroke: none;}
    text.terminal         {font-family: Verdana, Sans-serif;
                            font-size: 12px;
                            fill: #141000;
                            font-weight: bold;
                          }
    text.nonterminal      {font-family: Verdana, Sans-serif;
                            font-size: 12px;
                            fill: #1A1400;
                            font-weight: normal;
                          }
    text.regexp           {font-family: Verdana, Sans-serif;
                            font-size: 12px;
                            fill: #1F1800;
                            font-weight: normal;
                          }
    rect, circle, polygon {fill: #332900; stroke: #332900;}
    rect.terminal         {fill: #FFDB4D; stroke: #332900; stroke-width: 1;}
    rect.nonterminal      {fill: #FFEC9E; stroke: #332900; stroke-width: 1;}
    rect.text             {fill: none; stroke: none;}
    polygon.regexp        {fill: #FFF4C7; stroke: #332900; stroke-width: 1;}
  </style>
   </defs>
   <polygon points="9 33 1 29 1 37"/>
   <polygon points="17 33 9 29 9 37"/>
   <rect x="91" y="51" width="26" height="32" rx="10"/>
   <rect x="89"
         y="49"
         width="26"
         height="32"
         class="terminal"
         rx="10"/>
   <text class="terminal" x="99" y="69">"</text>
   <rect x="91" y="95" width="34" height="32" rx="10"/>
   <rect x="89"
         y="93"
         width="34"
         height="32"
         class="terminal"
         rx="10"/>
   <text class="terminal" x="99" y="113">""</text>
   <a xmlns:xlink="http://www.w3.org/1999/xlink"
      xlink:href="#string-character"
      xlink:title="string-character">
      <rect x="165" y="19" width="120" height="32"/>
      <rect x="163" y="17" width="120" height="32" class="nonterminal"/>
      <text class="nonterminal" x="173" y="37">string-character</text>
   </a>
   <path class="line"
         d="m17 33 h2 m60 0 h10 m0 0 h44 m-74 0 h20 m54 0 h20 m-94 0 q10 0 10 10 m74 0 q0 -10 10 -10 m-84 10 v12 m74 0 v-12 m-74 12 q0 10 10 10 m54 0 q10 0 10 -10 m-64 10 h10 m26 0 h10 m0 0 h8 m-64 -10 v20 m74 0 v-20 m-74 20 v24 m74 0 v-24 m-74 24 q0 10 10 10 m54 0 q10 0 10 -10 m-64 10 h10 m34 0 h10 m20 -76 h10 m120 0 h10 m-254 0 l20 0 m-1 0 q-9 0 -9 -10 l0 -12 q0 -10 10 -10 m234 32 l20 0 m-20 0 q10 0 10 -10 l0 -12 q0 -10 -10 -10 m-234 0 h10 m0 0 h224 m-274 32 h20 m274 0 h20 m-314 0 q10 0 10 10 m294 0 q0 -10 10 -10 m-304 10 v90 m294 0 v-90 m-294 90 q0 10 10 10 m274 0 q10 0 10 -10 m-284 10 h10 m0 0 h264 m23 -110 h-3"/>
   <polygon points="343 33 351 29 351 37"/>
   <polygon points="343 33 335 29 335 37"/>
</svg>
