<?xml version="1.0" encoding="UTF-8"?>
<svg xmlns="http://www.w3.org/2000/svg" width="355" height="115">
   <defs>
      <style type="text/css">
    @namespace "http://www.w3.org/2000/svg";
    .line                 {fill: none; stroke: #332900; stroke-width: 1;}
    .bold-line            {stroke: #141000; shape-rendering: crispEdges; stroke-width: 2;}
    .thin-line            {stroke: #1F1800; shape-rendering: crispEdges}
    .filled               {fill: #332900; stroke: none;}
    text.terminal         {font-family: Verdana, Sans-serif;
                            font-size: 12px;
                            fill: #141000;
                            font-weight: bold;
                          }
    text.nonterminal      {font-family: Verdana, Sans-serif;
                            font-size: 12px;
                            fill: #1A1400;
                            font-weight: normal;
                          }
    text.regexp           {font-family: Verdana, Sans-serif;
                            font-size: 12px;
                            fill: #1F1800;
                            font-weight: normal;
                          }
    rect, circle, polygon {fill: #332900; stroke: #332900;}
    rect.terminal         {fill: #FFDB4D; stroke: #332900; stroke-width: 1;}
    rect.nonterminal      {fill: #FFEC9E; stroke: #332900; stroke-width: 1;}
    rect.text             {fill: none; stroke: none;}
    polygon.regexp        {fill: #FFF4C7; stroke: #332900; stroke-width: 1;}
  </style>
   </defs>
   <polygon points="9 51 1 47 1 55"/>
   <polygon points="17 51 9 47 9 55"/>
   <a xmlns:xlink="http://www.w3.org/1999/xlink"
      xlink:href="#ws"
      xlink:title="ws">
      <rect x="51" y="3" width="36" height="32"/>
      <rect x="49" y="1" width="36" height="32" class="nonterminal"/>
      <text class="nonterminal" x="59" y="21">ws</text>
   </a>
   <a xmlns:xlink="http://www.w3.org/1999/xlink"
      xlink:href="#escline"
      xlink:title="escline">
      <rect x="147" y="37" width="64" height="32"/>
      <rect x="145" y="35" width="64" height="32" class="nonterminal"/>
      <text class="nonterminal" x="155" y="55">escline</text>
   </a>
   <a xmlns:xlink="http://www.w3.org/1999/xlink"
      xlink:href="#ws"
      xlink:title="ws">
      <rect x="251" y="3" width="36" height="32"/>
      <rect x="249" y="1" width="36" height="32" class="nonterminal"/>
      <text class="nonterminal" x="259" y="21">ws</text>
   </a>
   <a xmlns:xlink="http://www.w3.org/1999/xlink"
      xlink:href="#ws"
      xlink:title="ws">
      <rect x="147" y="81" width="36" height="32"/>
      <rect x="145" y="79" width="36" height="32" class="nonterminal"/>
      <text class="nonterminal" x="155" y="99">ws</text>
   </a>
   <path class="line"
         d="m17 51 h2 m20 0 h10 m0 0 h46 m-76 0 l20 0 m-1 0 q-9 0 -9 -10 l0 -14 q0 -10 10 -10 m56 34 l20 0 m-20 0 q10 0 10 -10 l0 -14 q0 -10 -10 -10 m-56 0 h10 m36 0 h10 m40 34 h10 m64 0 h10 m20 0 h10 m0 0 h46 m-76 0 l20 0 m-1 0 q-9 0 -9 -10 l0 -14 q0 -10 10 -10 m56 34 l20 0 m-20 0 q10 0 10 -10 l0 -14 q0 -10 -10 -10 m-56 0 h10 m36 0 h10 m-180 34 h20 m180 0 h20 m-220 0 q10 0 10 10 m200 0 q0 -10 10 -10 m-210 10 v24 m200 0 v-24 m-200 24 q0 10 10 10 m180 0 q10 0 10 -10 m-190 10 h10 m36 0 h10 m0 0 h124 m23 -44 h-3"/>
   <polygon points="345 51 353 47 353 55"/>
   <polygon points="345 51 337 47 337 55"/>
</svg>
