<?xml version="1.0" encoding="UTF-8"?>
<svg xmlns="http://www.w3.org/2000/svg" width="225" height="213">
   <defs>
      <style type="text/css">
    @namespace "http://www.w3.org/2000/svg";
    .line                 {fill: none; stroke: #332900; stroke-width: 1;}
    .bold-line            {stroke: #141000; shape-rendering: crispEdges; stroke-width: 2;}
    .thin-line            {stroke: #1F1800; shape-rendering: crispEdges}
    .filled               {fill: #332900; stroke: none;}
    text.terminal         {font-family: Verdana, Sans-serif;
                            font-size: 12px;
                            fill: #141000;
                            font-weight: bold;
                          }
    text.nonterminal      {font-family: Verdana, Sans-serif;
                            font-size: 12px;
                            fill: #1A1400;
                            font-weight: normal;
                          }
    text.regexp           {font-family: Verdana, Sans-serif;
                            font-size: 12px;
                            fill: #1F1800;
                            font-weight: normal;
                          }
    rect, circle, polygon {fill: #332900; stroke: #332900;}
    rect.terminal         {fill: #FFDB4D; stroke: #332900; stroke-width: 1;}
    rect.nonterminal      {fill: #FFEC9E; stroke: #332900; stroke-width: 1;}
    rect.text             {fill: none; stroke: none;}
    polygon.regexp        {fill: #FFF4C7; stroke: #332900; stroke-width: 1;}
  </style>
   </defs>
   <polygon points="9 17 1 13 1 21"/>
   <polygon points="17 17 9 13 9 21"/>
   <a xmlns:xlink="http://www.w3.org/1999/xlink"
      xlink:href="#keyword-number"
      xlink:title="keyword-number">
      <rect x="51" y="3" width="126" height="32"/>
      <rect x="49" y="1" width="126" height="32" class="nonterminal"/>
      <text class="nonterminal" x="59" y="21">keyword-number</text>
   </a>
   <a xmlns:xlink="http://www.w3.org/1999/xlink"
      xlink:href="#hex"
      xlink:title="hex">
      <rect x="51" y="47" width="42" height="32"/>
      <rect x="49" y="45" width="42" height="32" class="nonterminal"/>
      <text class="nonterminal" x="59" y="65">hex</text>
   </a>
   <a xmlns:xlink="http://www.w3.org/1999/xlink"
      xlink:href="#octal"
      xlink:title="octal">
      <rect x="51" y="91" width="50" height="32"/>
      <rect x="49" y="89" width="50" height="32" class="nonterminal"/>
      <text class="nonterminal" x="59" y="109">octal</text>
   </a>
   <a xmlns:xlink="http://www.w3.org/1999/xlink"
      xlink:href="#binary"
      xlink:title="binary">
      <rect x="51" y="135" width="60" height="32"/>
      <rect x="49" y="133" width="60" height="32" class="nonterminal"/>
      <text class="nonterminal" x="59" y="153">binary</text>
   </a>
   <a xmlns:xlink="http://www.w3.org/1999/xlink"
      xlink:href="#decimal"
      xlink:title="decimal">
      <rect x="51" y="179" width="68" height="32"/>
      <rect x="49" y="177" width="68" height="32" class="nonterminal"/>
      <text class="nonterminal" x="59" y="197">decimal</text>
   </a>
   <path class="line"
         d="m17 17 h2 m20 0 h10 m126 0 h10 m-166 0 h20 m146 0 h20 m-186 0 q10 0 10 10 m166 0 q0 -10 10 -10 m-176 10 v24 m166 0 v-24 m-166 24 q0 10 10 10 m146 0 q10 0 10 -10 m-156 10 h10 m42 0 h10 m0 0 h84 m-156 -10 v20 m166 0 v-20 m-166 20 v24 m166 0 v-24 m-166 24 q0 10 10 10 m146 0 q10 0 10 -10 m-156 10 h10 m50 0 h10 m0 0 h76 m-156 -10 v20 m166 0 v-20 m-166 20 v24 m166 0 v-24 m-166 24 q0 10 10 10 m146 0 q10 0 10 -10 m-156 10 h10 m60 0 h10 m0 0 h66 m-156 -10 v20 m166 0 v-20 m-166 20 v24 m166 0 v-24 m-166 24 q0 10 10 10 m146 0 q10 0 10 -10 m-156 10 h10 m68 0 h10 m0 0 h58 m23 -176 h-3"/>
   <polygon points="215 17 223 13 223 21"/>
   <polygon points="215 17 207 13 207 21"/>
</svg>
