<?xml version="1.0" encoding="UTF-8"?>
<svg xmlns="http://www.w3.org/2000/svg" width="755" height="147">
   <defs>
      <style type="text/css">
    @namespace "http://www.w3.org/2000/svg";
    .line                 {fill: none; stroke: #332900; stroke-width: 1;}
    .bold-line            {stroke: #141000; shape-rendering: crispEdges; stroke-width: 2;}
    .thin-line            {stroke: #1F1800; shape-rendering: crispEdges}
    .filled               {fill: #332900; stroke: none;}
    text.terminal         {font-family: Verdana, Sans-serif;
                            font-size: 12px;
                            fill: #141000;
                            font-weight: bold;
                          }
    text.nonterminal      {font-family: Verdana, Sans-serif;
                            font-size: 12px;
                            fill: #1A1400;
                            font-weight: normal;
                          }
    text.regexp           {font-family: Verdana, Sans-serif;
                            font-size: 12px;
                            fill: #1F1800;
                            font-weight: normal;
                          }
    rect, circle, polygon {fill: #332900; stroke: #332900;}
    rect.terminal         {fill: #FFDB4D; stroke: #332900; stroke-width: 1;}
    rect.nonterminal      {fill: #FFEC9E; stroke: #332900; stroke-width: 1;}
    rect.text             {fill: none; stroke: none;}
    polygon.regexp        {fill: #FFF4C7; stroke: #332900; stroke-width: 1;}
  </style>
   </defs>
   <polygon points="9 51 1 47 1 55"/>
   <polygon points="17 51 9 47 9 55"/>
   <rect x="71" y="69" width="26" height="32" rx="10"/>
   <rect x="69"
         y="67"
         width="26"
         height="32"
         class="terminal"
         rx="10"/>
   <text class="terminal" x="79" y="87">"</text>
   <a xmlns:xlink="http://www.w3.org/1999/xlink"
      xlink:href="#single-line-raw-string-char-minus-double-quote"
      xlink:title="single-line-raw-string-char-minus-double-quote">
      <rect x="137" y="37" width="322" height="32"/>
      <rect x="135" y="35" width="322" height="32" class="nonterminal"/>
      <text class="nonterminal" x="145" y="55">single-line-raw-string-char-minus-double-quote</text>
   </a>
   <a xmlns:xlink="http://www.w3.org/1999/xlink"
      xlink:href="#single-line-raw-string-char"
      xlink:title="single-line-raw-string-char">
      <rect x="499" y="3" width="188" height="32"/>
      <rect x="497" y="1" width="188" height="32" class="nonterminal"/>
      <text class="nonterminal" x="507" y="21">single-line-raw-string-char</text>
   </a>
   <rect x="51" y="113" width="20" height="32" rx="10"/>
   <rect x="49"
         y="111"
         width="20"
         height="32"
         class="terminal"
         rx="10"/>
   <text class="terminal" x="59" y="131"/>
   <path class="line"
         d="m17 51 h2 m40 0 h10 m0 0 h36 m-66 0 h20 m46 0 h20 m-86 0 q10 0 10 10 m66 0 q0 -10 10 -10 m-76 10 v12 m66 0 v-12 m-66 12 q0 10 10 10 m46 0 q10 0 10 -10 m-56 10 h10 m26 0 h10 m20 -32 h10 m322 0 h10 m20 0 h10 m0 0 h198 m-228 0 l20 0 m-1 0 q-9 0 -9 -10 l0 -14 q0 -10 10 -10 m208 34 l20 0 m-20 0 q10 0 10 -10 l0 -14 q0 -10 -10 -10 m-208 0 h10 m188 0 h10 m-676 34 h20 m676 0 h20 m-716 0 q10 0 10 10 m696 0 q0 -10 10 -10 m-706 10 v56 m696 0 v-56 m-696 56 q0 10 10 10 m676 0 q10 0 10 -10 m-686 10 h10 m20 0 h10 m0 0 h636 m23 -76 h-3"/>
   <polygon points="745 51 753 47 753 55"/>
   <polygon points="745 51 737 47 737 55"/>
</svg>
