<?xml version="1.0" encoding="UTF-8"?>
<svg xmlns="http://www.w3.org/2000/svg" width="377" height="203">
   <defs>
      <style type="text/css">
    @namespace "http://www.w3.org/2000/svg";
    .line                 {fill: none; stroke: #332900; stroke-width: 1;}
    .bold-line            {stroke: #141000; shape-rendering: crispEdges; stroke-width: 2;}
    .thin-line            {stroke: #1F1800; shape-rendering: crispEdges}
    .filled               {fill: #332900; stroke: none;}
    text.terminal         {font-family: Verdana, Sans-serif;
                            font-size: 12px;
                            fill: #141000;
                            font-weight: bold;
                          }
    text.nonterminal      {font-family: Verdana, Sans-serif;
                            font-size: 12px;
                            fill: #1A1400;
                            font-weight: normal;
                          }
    text.regexp           {font-family: Verdana, Sans-serif;
                            font-size: 12px;
                            fill: #1F1800;
                            font-weight: normal;
                          }
    rect, circle, polygon {fill: #332900; stroke: #332900;}
    rect.terminal         {fill: #FFDB4D; stroke: #332900; stroke-width: 1;}
    rect.nonterminal      {fill: #FFEC9E; stroke: #332900; stroke-width: 1;}
    rect.text             {fill: none; stroke: none;}
    polygon.regexp        {fill: #FFF4C7; stroke: #332900; stroke-width: 1;}
  </style>
   </defs>
   <polygon points="9 139 1 135 1 143"/>
   <polygon points="17 139 9 135 9 143"/>
   <a xmlns:xlink="http://www.w3.org/1999/xlink"
      xlink:href="#sign"
      xlink:title="sign">
      <rect x="51" y="157" width="46" height="32"/>
      <rect x="49" y="155" width="46" height="32" class="nonterminal"/>
      <text class="nonterminal" x="59" y="175">sign</text>
   </a>
   <rect x="137" y="125" width="36" height="32" rx="10"/>
   <rect x="135"
         y="123"
         width="36"
         height="32"
         class="terminal"
         rx="10"/>
   <text class="terminal" x="145" y="143">0b</text>
   <rect x="213" y="125" width="28" height="32" rx="10"/>
   <rect x="211"
         y="123"
         width="28"
         height="32"
         class="terminal"
         rx="10"/>
   <text class="terminal" x="221" y="143">0</text>
   <rect x="213" y="169" width="28" height="32" rx="10"/>
   <rect x="211"
         y="167"
         width="28"
         height="32"
         class="terminal"
         rx="10"/>
   <text class="terminal" x="221" y="187">1</text>
   <rect x="301" y="91" width="28" height="32" rx="10"/>
   <rect x="299"
         y="89"
         width="28"
         height="32"
         class="terminal"
         rx="10"/>
   <text class="terminal" x="309" y="109">0</text>
   <rect x="301" y="47" width="28" height="32" rx="10"/>
   <rect x="299"
         y="45"
         width="28"
         height="32"
         class="terminal"
         rx="10"/>
   <text class="terminal" x="309" y="65">1</text>
   <rect x="301" y="3" width="28" height="32" rx="10"/>
   <rect x="299"
         y="1"
         width="28"
         height="32"
         class="terminal"
         rx="10"/>
   <text class="terminal" x="309" y="21">_</text>
   <path class="line"
         d="m17 139 h2 m20 0 h10 m0 0 h56 m-86 0 h20 m66 0 h20 m-106 0 q10 0 10 10 m86 0 q0 -10 10 -10 m-96 10 v12 m86 0 v-12 m-86 12 q0 10 10 10 m66 0 q10 0 10 -10 m-76 10 h10 m46 0 h10 m20 -32 h10 m36 0 h10 m20 0 h10 m28 0 h10 m-68 0 h20 m48 0 h20 m-88 0 q10 0 10 10 m68 0 q0 -10 10 -10 m-78 10 v24 m68 0 v-24 m-68 24 q0 10 10 10 m48 0 q10 0 10 -10 m-58 10 h10 m28 0 h10 m40 -44 h10 m0 0 h38 m-68 0 l20 0 m-1 0 q-9 0 -9 -10 l0 -14 q0 -10 10 -10 m48 34 l20 0 m-20 0 q10 0 10 -10 l0 -14 q0 -10 -10 -10 m-48 0 h10 m28 0 h10 m-58 10 l0 -44 q0 -10 10 -10 m58 54 l0 -44 q0 -10 -10 -10 m-48 0 h10 m28 0 h10 m-58 10 l0 -44 q0 -10 10 -10 m58 54 l0 -44 q0 -10 -10 -10 m-48 0 h10 m28 0 h10 m23 122 h-3"/>
   <polygon points="367 139 375 135 375 143"/>
   <polygon points="367 139 359 135 359 143"/>
</svg>
