<?xml version="1.0" encoding="UTF-8"?>
<svg xmlns="http://www.w3.org/2000/svg" width="399" height="159">
   <defs>
      <style type="text/css">
    @namespace "http://www.w3.org/2000/svg";
    .line                 {fill: none; stroke: #332900; stroke-width: 1;}
    .bold-line            {stroke: #141000; shape-rendering: crispEdges; stroke-width: 2;}
    .thin-line            {stroke: #1F1800; shape-rendering: crispEdges}
    .filled               {fill: #332900; stroke: none;}
    text.terminal         {font-family: Verdana, Sans-serif;
                            font-size: 12px;
                            fill: #141000;
                            font-weight: bold;
                          }
    text.nonterminal      {font-family: Verdana, Sans-serif;
                            font-size: 12px;
                            fill: #1A1400;
                            font-weight: normal;
                          }
    text.regexp           {font-family: Verdana, Sans-serif;
                            font-size: 12px;
                            fill: #1F1800;
                            font-weight: normal;
                          }
    rect, circle, polygon {fill: #332900; stroke: #332900;}
    rect.terminal         {fill: #FFDB4D; stroke: #332900; stroke-width: 1;}
    rect.nonterminal      {fill: #FFEC9E; stroke: #332900; stroke-width: 1;}
    rect.text             {fill: none; stroke: none;}
    polygon.regexp        {fill: #FFF4C7; stroke: #332900; stroke-width: 1;}
  </style>
   </defs>
   <polygon points="9 51 1 47 1 55"/>
   <polygon points="17 51 9 47 9 55"/>
   <rect x="31" y="37" width="36" height="32" rx="10"/>
   <rect x="29"
         y="35"
         width="36"
         height="32"
         class="terminal"
         rx="10"/>
   <text class="terminal" x="39" y="55">\\</text>
   <a xmlns:xlink="http://www.w3.org/1999/xlink"
      xlink:href="#ws"
      xlink:title="ws">
      <rect x="107" y="3" width="36" height="32"/>
      <rect x="105" y="1" width="36" height="32" class="nonterminal"/>
      <text class="nonterminal" x="115" y="21">ws</text>
   </a>
   <a xmlns:xlink="http://www.w3.org/1999/xlink"
      xlink:href="#single-line-comment"
      xlink:title="single-line-comment">
      <rect x="203" y="37" width="148" height="32"/>
      <rect x="201" y="35" width="148" height="32" class="nonterminal"/>
      <text class="nonterminal" x="211" y="55">single-line-comment</text>
   </a>
   <a xmlns:xlink="http://www.w3.org/1999/xlink"
      xlink:href="#newline"
      xlink:title="newline">
      <rect x="203" y="81" width="68" height="32"/>
      <rect x="201" y="79" width="68" height="32" class="nonterminal"/>
      <text class="nonterminal" x="211" y="99">newline</text>
   </a>
   <a xmlns:xlink="http://www.w3.org/1999/xlink"
      xlink:href="#eof"
      xlink:title="eof">
      <rect x="203" y="125" width="40" height="32"/>
      <rect x="201" y="123" width="40" height="32" class="nonterminal"/>
      <text class="nonterminal" x="211" y="143">eof</text>
   </a>
   <path class="line"
         d="m17 51 h2 m0 0 h10 m36 0 h10 m20 0 h10 m0 0 h46 m-76 0 l20 0 m-1 0 q-9 0 -9 -10 l0 -14 q0 -10 10 -10 m56 34 l20 0 m-20 0 q10 0 10 -10 l0 -14 q0 -10 -10 -10 m-56 0 h10 m36 0 h10 m40 34 h10 m148 0 h10 m-188 0 h20 m168 0 h20 m-208 0 q10 0 10 10 m188 0 q0 -10 10 -10 m-198 10 v24 m188 0 v-24 m-188 24 q0 10 10 10 m168 0 q10 0 10 -10 m-178 10 h10 m68 0 h10 m0 0 h80 m-178 -10 v20 m188 0 v-20 m-188 20 v24 m188 0 v-24 m-188 24 q0 10 10 10 m168 0 q10 0 10 -10 m-178 10 h10 m40 0 h10 m0 0 h108 m23 -88 h-3"/>
   <polygon points="389 51 397 47 397 55"/>
   <polygon points="389 51 381 47 381 55"/>
</svg>
