<?xml version="1.0" encoding="UTF-8"?>
<svg xmlns="http://www.w3.org/2000/svg" width="223" height="101">
   <defs>
      <style type="text/css">
    @namespace "http://www.w3.org/2000/svg";
    .line                 {fill: none; stroke: #332900; stroke-width: 1;}
    .bold-line            {stroke: #141000; shape-rendering: crispEdges; stroke-width: 2;}
    .thin-line            {stroke: #1F1800; shape-rendering: crispEdges}
    .filled               {fill: #332900; stroke: none;}
    text.terminal         {font-family: Verdana, Sans-serif;
                            font-size: 12px;
                            fill: #141000;
                            font-weight: bold;
                          }
    text.nonterminal      {font-family: Verdana, Sans-serif;
                            font-size: 12px;
                            fill: #1A1400;
                            font-weight: normal;
                          }
    text.regexp           {font-family: Verdana, Sans-serif;
                            font-size: 12px;
                            fill: #1F1800;
                            font-weight: normal;
                          }
    rect, circle, polygon {fill: #332900; stroke: #332900;}
    rect.terminal         {fill: #FFDB4D; stroke: #332900; stroke-width: 1;}
    rect.nonterminal      {fill: #FFEC9E; stroke: #332900; stroke-width: 1;}
    rect.text             {fill: none; stroke: none;}
    polygon.regexp        {fill: #FFF4C7; stroke: #332900; stroke-width: 1;}
  </style>
   </defs>
   <polygon points="9 95 1 91 1 99"/>
   <polygon points="17 95 9 91 9 99"/>
   <a xmlns:xlink="http://www.w3.org/1999/xlink"
      xlink:href="#line-space"
      xlink:title="line-space">
      <rect x="71" y="47" width="84" height="32"/>
      <rect x="69" y="45" width="84" height="32" class="nonterminal"/>
      <text class="nonterminal" x="79" y="65">line-space</text>
   </a>
   <a xmlns:xlink="http://www.w3.org/1999/xlink"
      xlink:href="#node"
      xlink:title="node">
      <rect x="51" y="3" width="52" height="32"/>
      <rect x="49" y="1" width="52" height="32" class="nonterminal"/>
      <text class="nonterminal" x="59" y="21">node</text>
   </a>
   <path class="line"
         d="m17 95 h2 m40 0 h10 m0 0 h94 m-124 0 l20 0 m-1 0 q-9 0 -9 -10 l0 -14 q0 -10 10 -10 m104 34 l20 0 m-20 0 q10 0 10 -10 l0 -14 q0 -10 -10 -10 m-104 0 h10 m84 0 h10 m-144 34 l20 0 m-1 0 q-9 0 -9 -10 l0 -58 q0 -10 10 -10 m144 78 l20 0 m-20 0 q10 0 10 -10 l0 -58 q0 -10 -10 -10 m-144 0 h10 m52 0 h10 m0 0 h72 m23 78 h-3"/>
   <polygon points="213 95 221 91 221 99"/>
   <polygon points="213 95 205 91 205 99"/>
</svg>
