<?xml version="1.0" encoding="UTF-8"?>
<svg xmlns="http://www.w3.org/2000/svg" width="725" height="115">
   <defs>
      <style type="text/css">
    @namespace "http://www.w3.org/2000/svg";
    .line                 {fill: none; stroke: #332900; stroke-width: 1;}
    .bold-line            {stroke: #141000; shape-rendering: crispEdges; stroke-width: 2;}
    .thin-line            {stroke: #1F1800; shape-rendering: crispEdges}
    .filled               {fill: #332900; stroke: none;}
    text.terminal         {font-family: Verdana, Sans-serif;
                            font-size: 12px;
                            fill: #141000;
                            font-weight: bold;
                          }
    text.nonterminal      {font-family: Verdana, Sans-serif;
                            font-size: 12px;
                            fill: #1A1400;
                            font-weight: normal;
                          }
    text.regexp           {font-family: Verdana, Sans-serif;
                            font-size: 12px;
                            fill: #1F1800;
                            font-weight: normal;
                          }
    rect, circle, polygon {fill: #332900; stroke: #332900;}
    rect.terminal         {fill: #FFDB4D; stroke: #332900; stroke-width: 1;}
    rect.nonterminal      {fill: #FFEC9E; stroke: #332900; stroke-width: 1;}
    rect.text             {fill: none; stroke: none;}
    polygon.regexp        {fill: #FFF4C7; stroke: #332900; stroke-width: 1;}
  </style>
   </defs>
   <polygon points="9 51 1 47 1 55"/>
   <polygon points="17 51 9 47 9 55"/>
   <rect x="51" y="37" width="40" height="32" rx="10"/>
   <rect x="49"
         y="35"
         width="40"
         height="32"
         class="terminal"
         rx="10"/>
   <text class="terminal" x="59" y="55">"""</text>
   <a xmlns:xlink="http://www.w3.org/1999/xlink"
      xlink:href="#newline"
      xlink:title="newline">
      <rect x="111" y="37" width="68" height="32"/>
      <rect x="109" y="35" width="68" height="32" class="nonterminal"/>
      <text class="nonterminal" x="119" y="55">newline</text>
   </a>
   <a xmlns:xlink="http://www.w3.org/1999/xlink"
      xlink:href="#multi-line-string-body"
      xlink:title="multi-line-string-body">
      <rect x="199" y="37" width="158" height="32"/>
      <rect x="197" y="35" width="158" height="32" class="nonterminal"/>
      <text class="nonterminal" x="207" y="55">multi-line-string-body</text>
   </a>
   <a xmlns:xlink="http://www.w3.org/1999/xlink"
      xlink:href="#newline"
      xlink:title="newline">
      <rect x="377" y="37" width="68" height="32"/>
      <rect x="375" y="35" width="68" height="32" class="nonterminal"/>
      <text class="nonterminal" x="385" y="55">newline</text>
   </a>
   <a xmlns:xlink="http://www.w3.org/1999/xlink"
      xlink:href="#unicode-space"
      xlink:title="unicode-space">
      <rect x="485" y="3" width="112" height="32"/>
      <rect x="483" y="1" width="112" height="32" class="nonterminal"/>
      <text class="nonterminal" x="493" y="21">unicode-space</text>
   </a>
   <rect x="637" y="37" width="40" height="32" rx="10"/>
   <rect x="635"
         y="35"
         width="40"
         height="32"
         class="terminal"
         rx="10"/>
   <text class="terminal" x="645" y="55">"""</text>
   <rect x="51" y="81" width="26" height="32" rx="10"/>
   <rect x="49"
         y="79"
         width="26"
         height="32"
         class="terminal"
         rx="10"/>
   <text class="terminal" x="59" y="99">"</text>
   <a xmlns:xlink="http://www.w3.org/1999/xlink"
      xlink:href="#single-line-string-body"
      xlink:title="single-line-string-body">
      <rect x="97" y="81" width="164" height="32"/>
      <rect x="95" y="79" width="164" height="32" class="nonterminal"/>
      <text class="nonterminal" x="105" y="99">single-line-string-body</text>
   </a>
   <rect x="281" y="81" width="26" height="32" rx="10"/>
   <rect x="279"
         y="79"
         width="26"
         height="32"
         class="terminal"
         rx="10"/>
   <text class="terminal" x="289" y="99">"</text>
   <path class="line"
         d="m17 51 h2 m20 0 h10 m40 0 h10 m0 0 h10 m68 0 h10 m0 0 h10 m158 0 h10 m0 0 h10 m68 0 h10 m20 0 h10 m0 0 h122 m-152 0 l20 0 m-1 0 q-9 0 -9 -10 l0 -14 q0 -10 10 -10 m132 34 l20 0 m-20 0 q10 0 10 -10 l0 -14 q0 -10 -10 -10 m-132 0 h10 m112 0 h10 m20 34 h10 m40 0 h10 m-666 0 h20 m646 0 h20 m-686 0 q10 0 10 10 m666 0 q0 -10 10 -10 m-676 10 v24 m666 0 v-24 m-666 24 q0 10 10 10 m646 0 q10 0 10 -10 m-656 10 h10 m26 0 h10 m0 0 h10 m164 0 h10 m0 0 h10 m26 0 h10 m0 0 h370 m23 -44 h-3"/>
   <polygon points="715 51 723 47 723 55"/>
   <polygon points="715 51 707 47 707 55"/>
</svg>
