<?xml version="1.0" encoding="UTF-8"?>
<svg xmlns="http://www.w3.org/2000/svg" width="333" height="81">
   <defs>
      <style type="text/css">
    @namespace "http://www.w3.org/2000/svg";
    .line                 {fill: none; stroke: #332900; stroke-width: 1;}
    .bold-line            {stroke: #141000; shape-rendering: crispEdges; stroke-width: 2;}
    .thin-line            {stroke: #1F1800; shape-rendering: crispEdges}
    .filled               {fill: #332900; stroke: none;}
    text.terminal         {font-family: Verdana, Sans-serif;
                            font-size: 12px;
                            fill: #141000;
                            font-weight: bold;
                          }
    text.nonterminal      {font-family: Verdana, Sans-serif;
                            font-size: 12px;
                            fill: #1A1400;
                            font-weight: normal;
                          }
    text.regexp           {font-family: Verdana, Sans-serif;
                            font-size: 12px;
                            fill: #1F1800;
                            font-weight: normal;
                          }
    rect, circle, polygon {fill: #332900; stroke: #332900;}
    rect.terminal         {fill: #FFDB4D; stroke: #332900; stroke-width: 1;}
    rect.nonterminal      {fill: #FFEC9E; stroke: #332900; stroke-width: 1;}
    rect.text             {fill: none; stroke: none;}
    polygon.regexp        {fill: #FFF4C7; stroke: #332900; stroke-width: 1;}
  </style>
   </defs>
   <polygon points="9 17 1 13 1 21"/>
   <polygon points="17 17 9 13 9 21"/>
   <rect x="31" y="3" width="30" height="32" rx="10"/>
   <rect x="29"
         y="1"
         width="30"
         height="32"
         class="terminal"
         rx="10"/>
   <text class="terminal" x="39" y="21">#</text>
   <a xmlns:xlink="http://www.w3.org/1999/xlink"
      xlink:href="#raw-string-quotes"
      xlink:title="raw-string-quotes">
      <rect x="101" y="3" width="134" height="32"/>
      <rect x="99" y="1" width="134" height="32" class="nonterminal"/>
      <text class="nonterminal" x="109" y="21">raw-string-quotes</text>
   </a>
   <a xmlns:xlink="http://www.w3.org/1999/xlink"
      xlink:href="#raw-string"
      xlink:title="raw-string">
      <rect x="101" y="47" width="84" height="32"/>
      <rect x="99" y="45" width="84" height="32" class="nonterminal"/>
      <text class="nonterminal" x="109" y="65">raw-string</text>
   </a>
   <rect x="275" y="3" width="30" height="32" rx="10"/>
   <rect x="273"
         y="1"
         width="30"
         height="32"
         class="terminal"
         rx="10"/>
   <text class="terminal" x="283" y="21">#</text>
   <path class="line"
         d="m17 17 h2 m0 0 h10 m30 0 h10 m20 0 h10 m134 0 h10 m-174 0 h20 m154 0 h20 m-194 0 q10 0 10 10 m174 0 q0 -10 10 -10 m-184 10 v24 m174 0 v-24 m-174 24 q0 10 10 10 m154 0 q10 0 10 -10 m-164 10 h10 m84 0 h10 m0 0 h50 m20 -44 h10 m30 0 h10 m3 0 h-3"/>
   <polygon points="323 17 331 13 331 21"/>
   <polygon points="323 17 315 13 315 21"/>
</svg>
