<?xml version="1.0" encoding="UTF-8"?>
<svg xmlns="http://www.w3.org/2000/svg" width="439" height="115">
   <defs>
      <style type="text/css">
    @namespace "http://www.w3.org/2000/svg";
    .line                 {fill: none; stroke: #332900; stroke-width: 1;}
    .bold-line            {stroke: #141000; shape-rendering: crispEdges; stroke-width: 2;}
    .thin-line            {stroke: #1F1800; shape-rendering: crispEdges}
    .filled               {fill: #332900; stroke: none;}
    text.terminal         {font-family: Verdana, Sans-serif;
                            font-size: 12px;
                            fill: #141000;
                            font-weight: bold;
                          }
    text.nonterminal      {font-family: Verdana, Sans-serif;
                            font-size: 12px;
                            fill: #1A1400;
                            font-weight: normal;
                          }
    text.regexp           {font-family: Verdana, Sans-serif;
                            font-size: 12px;
                            fill: #1F1800;
                            font-weight: normal;
                          }
    rect, circle, polygon {fill: #332900; stroke: #332900;}
    rect.terminal         {fill: #FFDB4D; stroke: #332900; stroke-width: 1;}
    rect.nonterminal      {fill: #FFEC9E; stroke: #332900; stroke-width: 1;}
    rect.text             {fill: none; stroke: none;}
    polygon.regexp        {fill: #FFF4C7; stroke: #332900; stroke-width: 1;}
  </style>
   </defs>
   <polygon points="9 51 1 47 1 55"/>
   <polygon points="17 51 9 47 9 55"/>
   <rect x="31" y="37" width="36" height="32" rx="10"/>
   <rect x="29"
         y="35"
         width="36"
         height="32"
         class="terminal"
         rx="10"/>
   <text class="terminal" x="39" y="55">//</text>
   <a xmlns:xlink="http://www.w3.org/1999/xlink"
      xlink:href="#anything-but-newline"
      xlink:title="anything-but-newline">
      <rect x="107" y="3" width="156" height="32"/>
      <rect x="105" y="1" width="156" height="32" class="nonterminal"/>
      <text class="nonterminal" x="115" y="21">anything-but-newline</text>
   </a>
   <a xmlns:xlink="http://www.w3.org/1999/xlink"
      xlink:href="#newline"
      xlink:title="newline">
      <rect x="323" y="37" width="68" height="32"/>
      <rect x="321" y="35" width="68" height="32" class="nonterminal"/>
      <text class="nonterminal" x="331" y="55">newline</text>
   </a>
   <a xmlns:xlink="http://www.w3.org/1999/xlink"
      xlink:href="#eof"
      xlink:title="eof">
      <rect x="323" y="81" width="40" height="32"/>
      <rect x="321" y="79" width="40" height="32" class="nonterminal"/>
      <text class="nonterminal" x="331" y="99">eof</text>
   </a>
   <path class="line"
         d="m17 51 h2 m0 0 h10 m36 0 h10 m20 0 h10 m0 0 h166 m-196 0 l20 0 m-1 0 q-9 0 -9 -10 l0 -14 q0 -10 10 -10 m176 34 l20 0 m-20 0 q10 0 10 -10 l0 -14 q0 -10 -10 -10 m-176 0 h10 m156 0 h10 m40 34 h10 m68 0 h10 m-108 0 h20 m88 0 h20 m-128 0 q10 0 10 10 m108 0 q0 -10 10 -10 m-118 10 v24 m108 0 v-24 m-108 24 q0 10 10 10 m88 0 q10 0 10 -10 m-98 10 h10 m40 0 h10 m0 0 h28 m23 -44 h-3"/>
   <polygon points="429 51 437 47 437 55"/>
   <polygon points="429 51 421 47 421 55"/>
</svg>
