<?xml version="1.0" encoding="UTF-8"?>
<svg xmlns="http://www.w3.org/2000/svg" width="247" height="115">
   <defs>
      <style type="text/css">
    @namespace "http://www.w3.org/2000/svg";
    .line                 {fill: none; stroke: #332900; stroke-width: 1;}
    .bold-line            {stroke: #141000; shape-rendering: crispEdges; stroke-width: 2;}
    .thin-line            {stroke: #1F1800; shape-rendering: crispEdges}
    .filled               {fill: #332900; stroke: none;}
    text.terminal         {font-family: Verdana, Sans-serif;
                            font-size: 12px;
                            fill: #141000;
                            font-weight: bold;
                          }
    text.nonterminal      {font-family: Verdana, Sans-serif;
                            font-size: 12px;
                            fill: #1A1400;
                            font-weight: normal;
                          }
    text.regexp           {font-family: Verdana, Sans-serif;
                            font-size: 12px;
                            fill: #1F1800;
                            font-weight: normal;
                          }
    rect, circle, polygon {fill: #332900; stroke: #332900;}
    rect.terminal         {fill: #FFDB4D; stroke: #332900; stroke-width: 1;}
    rect.nonterminal      {fill: #FFEC9E; stroke: #332900; stroke-width: 1;}
    rect.text             {fill: none; stroke: none;}
    polygon.regexp        {fill: #FFF4C7; stroke: #332900; stroke-width: 1;}
  </style>
   </defs>
   <polygon points="9 95 1 91 1 99"/>
   <polygon points="17 95 9 91 9 99"/>
   <rect x="31" y="81" width="34" height="32" rx="10"/>
   <rect x="29"
         y="79"
         width="34"
         height="32"
         class="terminal"
         rx="10"/>
   <text class="terminal" x="39" y="99">/-</text>
   <a xmlns:xlink="http://www.w3.org/1999/xlink"
      xlink:href="#node-space"
      xlink:title="node-space">
      <rect x="105" y="47" width="94" height="32"/>
      <rect x="103" y="45" width="94" height="32" class="nonterminal"/>
      <text class="nonterminal" x="113" y="65">node-space</text>
   </a>
   <a xmlns:xlink="http://www.w3.org/1999/xlink"
      xlink:href="#line-space"
      xlink:title="line-space">
      <rect x="105" y="3" width="84" height="32"/>
      <rect x="103" y="1" width="84" height="32" class="nonterminal"/>
      <text class="nonterminal" x="113" y="21">line-space</text>
   </a>
   <path class="line"
         d="m17 95 h2 m0 0 h10 m34 0 h10 m20 0 h10 m0 0 h104 m-134 0 l20 0 m-1 0 q-9 0 -9 -10 l0 -14 q0 -10 10 -10 m114 34 l20 0 m-20 0 q10 0 10 -10 l0 -14 q0 -10 -10 -10 m-114 0 h10 m94 0 h10 m-124 10 l0 -44 q0 -10 10 -10 m124 54 l0 -44 q0 -10 -10 -10 m-114 0 h10 m84 0 h10 m0 0 h10 m23 78 h-3"/>
   <polygon points="237 95 245 91 245 99"/>
   <polygon points="237 95 229 91 229 99"/>
</svg>
